HIERARCHY
ROOT root
{
	OFFSET	0	13.1	24.9
	CHANNELS 6  Xposition Yposition Zposition Xrotation Yrotation Zrotation
	JOINT spine_1
	{
		OFFSET	0	9.99999	0
		CHANNELS 3  Xrotation Yrotation Zrotation
		JOINT spine_2
		{
			OFFSET	0	112	-10
			CHANNELS 3  Xrotation Yrotation Zrotation
			JOINT spine_3
			{
				OFFSET	0	206.5	19.3
				CHANNELS 3  Xrotation Yrotation Zrotation
				JOINT spine_4
				{
					OFFSET	0	110.4	14.6
					CHANNELS 3  Xrotation Yrotation Zrotation
					JOINT neck_1
					{
						OFFSET	0	71.8	-50.3
						CHANNELS 3  Xrotation Yrotation Zrotation
						JOINT neck_2
						{
							OFFSET	0	86.2	-25.8
							CHANNELS 3  Xrotation Yrotation Zrotation
							JOINT head_ee
							{
								OFFSET	0	179.8	-8.7
								CHANNELS 3  Xrotation Yrotation Zrotation
								End Site
								{
									OFFSET	1	0	0
								}
							}
						}
					}
					JOINT left_clavicle
					{
						OFFSET	-43.2	22.4	-70.8
						CHANNELS 3  Xrotation Yrotation Zrotation
						JOINT left_shoulder
						{
							OFFSET	-93.9	-5.79999	48.7
							CHANNELS 3  Xrotation Yrotation Zrotation
							JOINT left_elbow
							{
								OFFSET	-291.4	-30.8	15.2
								CHANNELS 3  Xrotation Yrotation Zrotation
								JOINT left_lowarm_twist
								{
									OFFSET	-110.7	-3.89999	13.6
									CHANNELS 3  Xrotation Yrotation Zrotation
									JOINT left_hand
									{
										OFFSET	-110.7	-3.89999	13.6
										CHANNELS 3  Xrotation Yrotation Zrotation
										JOINT left_ee
										{
											OFFSET	-80.8	-5.10001	12.1
											CHANNELS 3  Xrotation Yrotation Zrotation
											End Site
											{
												OFFSET	1	0	0
											}
										}
									}
								}
							}
						}
					}
					JOINT right_clavicle
					{
						OFFSET	43.2	22.4	-70.8
						CHANNELS 3  Xrotation Yrotation Zrotation
						JOINT right_shoulder
						{
							OFFSET	93.9	-5.79999	48.7
							CHANNELS 3  Xrotation Yrotation Zrotation
							JOINT right_elbow
							{
								OFFSET	291.4	-30.8	15.2
								CHANNELS 3  Xrotation Yrotation Zrotation
								JOINT right_lowarm_twist
								{
									OFFSET	110.7	-3.89999	13.6
									CHANNELS 3  Xrotation Yrotation Zrotation
									JOINT right_hand
									{
										OFFSET	110.7	-3.89999	13.6
										CHANNELS 3  Xrotation Yrotation Zrotation
										JOINT right_ee
										{
											OFFSET	80.8	-5.10001	12.1
											CHANNELS 3  Xrotation Yrotation Zrotation
											End Site
											{
												OFFSET	1	0	0
											}
										}
									}
								}
							}
						}
					}
				}
			}
		}
	}
	JOINT left_hip
	{
		OFFSET	-82.8	-127.5	0.300001
		CHANNELS 3  Xrotation Yrotation Zrotation
		JOINT left_knee
		{
			OFFSET	-28.2	-396.7	2.2
			CHANNELS 3  Xrotation Yrotation Zrotation
			JOINT left_ankle
			{
				OFFSET	-11.7	-411.3	35.4
				CHANNELS 3  Xrotation Yrotation Zrotation
				JOINT left_toes
				{
					OFFSET	0	-60	-88.6
					CHANNELS 3  Xrotation Yrotation Zrotation
					JOINT left_foot_ee
					{
						OFFSET	-22.5	-16.5	-42.2
						CHANNELS 3  Xrotation Yrotation Zrotation
						End Site
						{
							OFFSET	1	0	0
						}
					}
				}
			}
		}
	}
	JOINT right_hip
	{
		OFFSET	82.8	-127.5	0.300001
		CHANNELS 3  Xrotation Yrotation Zrotation
		JOINT right_knee
		{
			OFFSET	28.2	-396.7	2.2
			CHANNELS 3  Xrotation Yrotation Zrotation
			JOINT right_ankle
			{
				OFFSET	11.7	-411.3	35.4
				CHANNELS 3  Xrotation Yrotation Zrotation
				JOINT right_toes
				{
					OFFSET	0	-60	-88.6
					CHANNELS 3  Xrotation Yrotation Zrotation
					JOINT right_foot_ee
					{
						OFFSET	22.5	-16.5	-42.2
						CHANNELS 3  Xrotation Yrotation Zrotation
						End Site
						{
							OFFSET	1	0	0
						}
					}
				}
			}
		}
	}
}
MOTION
Frames: 15
Frame Time: 0.02
3014.29 710.034 -594.083 146.302 -70.774 146.9 -2.57135 0.953594 2.18404 -2.56906 0.812721 2.24026 -2.53316 0.219414 2.37294 -2.54053 0.591322 2.30856 -17.6559 2.26131 -3.81868 -17.6646 6.4429 -2.71907 -0.0 0.0 -0.0 -0.676297 5.41246 -0.590911 -19.2109 -12.733 76.3054 0.439446 -12.2812 0.0472785 -30.2421 -1.97813 3.27549 4.75701 0.53126 33.997 -0.0 0.0 -0.0 4.61877 19.918 -7.62006 7.08032 6.77252 -65.1947 1.96549 44.2301 -0.798769 37.207 0.212018 4.66575 0.503234 -20.029 -11.1205 0.0 0.0 0.0 8.42473 -26.8986 -0.577211 -8.65138 0.258359 1.30133 22.8545 16.4571 -3.12171 -17.7247 0.0 0.0 -0.0 0.0 -0.0 -11.1962 6.44478 2.89334 -31.983 0.0369823 -4.84495 21.3818 -9.81967 2.90402 40.1469 -0.0 -0.0 0.0 0.0 0.0 
3038.18 715.972 -594.959 141.189 -72.1657 142.366 -2.67442 1.02591 1.75503 -2.67317 0.912177 1.81673 -2.64132 0.419097 1.98915 -2.6461 0.727931 1.89805 -19.4755 2.4736 -3.58009 -19.5015 6.61816 -2.32081 -0.0 0.0 -0.0 -1.04382 5.03065 -1.31617 -18.3508 -13.4143 75.396 0.5923 -16.3522 0.0851005 -31.5894 -2.10429 3.39355 5.24906 -2.51149 36.6955 -0.0 0.0 -0.0 4.16692 17.7609 -6.83829 5.34716 6.11167 -65.5415 1.78374 41.4605 -0.675143 36.3069 0.17124 4.55814 0.301626 -18.4386 -9.31628 0.0 0.0 0.0 7.57564 -28.2734 -0.313515 -9.00229 0.264667 1.35481 21.653 16.7229 -2.97633 -17.6637 0.0 0.0 -0.0 0.0 -0.0 -9.77043 5.8056 2.18801 -37.3543 0.307085 -5.62432 19.9342 -10.4643 2.72714 39.9808 -0.0 -0.0 0.0 0.0 0.0 
3059.74 722.029 -599.087 139.612 -72.4439 140.987 -2.71494 0.723799 1.56849 -2.71379 0.622539 1.61135 -2.69405 0.189623 1.71696 -2.69787 0.458368 1.66549 -20.0427 2.87879 -1.54711 -20.0945 6.33477 -0.232313 -0.0 0.0 -0.0 -0.284209 4.63447 0.0281471 -16.5527 -14.0762 74.7317 0.517022 -14.3658 0.0651588 -31.7926 -2.12355 3.41109 5.22663 -1.67917 36.8979 -0.0 0.0 -0.0 4.11128 17.2896 -6.75999 2.97884 5.92369 -66.4396 1.69737 40.0546 -0.618747 36.9351 0.199521 4.63331 0.362682 -18.5494 -9.73056 0.0 0.0 0.0 7.17754 -27.8394 0.0896868 -11.1659 0.296314 1.68527 21.1063 14.634 -2.89228 -17.7503 0.0 0.0 -0.0 0.0 -0.0 -10.2435 7.11015 2.10749 -38.138 0.352577 -5.73584 18.512 -10.9724 2.54994 39.5627 -0.0 -0.0 0.0 0.0 0.0 
3080.24 724.881 -603.282 139.393 -72.4427 140.73 -2.62065 0.649809 1.46145 -2.61964 0.555507 1.49983 -2.60322 0.155846 1.59177 -2.60652 0.405251 1.5472 -20.9884 3.12149 -2.36466 -21.0542 7.18195 -0.83479 -0.0 0.0 -0.0 -0.288065 4.66829 0.0252613 -15.6108 -15.5846 74.4426 0.595627 -16.4392 0.0860399 -32.4027 -2.18178 3.46337 5.36236 -2.50193 37.6587 -0.0 0.0 -0.0 3.87698 17.3267 -6.25518 0.651954 5.84722 -66.6726 1.61692 38.6909 -0.567712 38.0184 0.250225 4.76221 0.550619 -18.4962 -10.864 0.0 0.0 0.0 6.05381 -28.3409 1.11615 -11.5074 0.300167 1.73752 22.7617 14.0656 -3.09136 -16.7202 0.0 0.0 -0.0 0.0 -0.0 -9.90043 8.21871 2.46729 -39.1188 0.411658 -5.87453 18.7083 -12.4709 2.58005 40.1601 -0.0 -0.0 0.0 0.0 0.0 
3097.9 725.989 -608.365 132.091 -74.1017 132.924 -2.54147 0.500795 1.36286 -2.54053 0.413067 1.39195 -2.52896 0.0473537 1.45117 -2.5318 0.275921 1.42549 -21.9723 3.52218 -1.47941 -22.0609 7.49723 0.224624 -0.0 0.0 -0.0 0.338302 3.42655 1.03824 -12.104 -17.9706 72.773 0.579177 -16.0087 0.0814435 -33.4025 -2.27839 3.5477 5.5352 -2.05226 39.3655 -0.0 0.0 -0.0 3.64145 17.0019 -5.78022 -3.12244 5.54043 -67.1226 1.48377 36.3142 -0.486633 39.4585 0.321396 4.93205 0.713162 -18.5157 -11.8723 0.0 0.0 0.0 5.99383 -28.8889 3.39539 -11.6534 0.30172 1.75988 21.9564 12.8323 -2.98595 -16.2389 0.0 0.0 -0.0 0.0 -0.0 -9.36825 9.32264 2.42912 -40.9584 0.52886 -6.13191 17.7624 -12.0343 2.45788 40.13 -0.0 -0.0 0.0 0.0 0.0 
3116.15 728.515 -609.019 125.902 -74.5294 126.949 -2.61324 0.614755 1.3184 -2.61243 0.529624 1.35484 -2.59836 0.167797 1.44495 -2.60105 0.393872 1.40033 -22.6378 3.73077 -0.434218 -22.7331 7.40029 1.33198 -0.0 0.0 -0.0 0.744651 2.09269 1.65565 -11.4518 -19.4859 71.6081 0.578091 -15.9802 0.0811444 -33.794 -2.31662 3.58026 5.54727 -2.39572 39.3029 -0.0 0.0 -0.0 3.63256 16.6752 -5.79024 -5.59124 5.66103 -67.9421 1.31119 33.0032 -0.388447 40.5468 0.378009 5.05921 0.924273 -18.7186 -13.2488 0.0 0.0 0.0 5.13905 -29.7932 4.3607 -13.0203 0.313492 1.96927 22.5994 11.5726 -3.05787 -16.0194 0.0 0.0 -0.0 0.0 -0.0 -9.37049 10.4136 1.69696 -41.7033 0.578672 -6.23506 18.3008 -12.3393 2.52775 40.1308 -0.0 -0.0 0.0 0.0 0.0 
3131.53 729.981 -613.625 124.609 -74.5305 125.272 -2.59604 0.394014 1.22402 -2.59527 0.315334 1.2466 -2.5872 -0.0117439 1.28581 -2.58945 0.191456 1.27153 -22.6629 3.77638 0.851767 -22.7431 6.89515 2.54504 -0.0 0.0 -0.0 1.03563 0.74047 2.06982 -10.5749 -21.7513 70.6695 0.554138 -15.35 0.0746765 -34.4692 -2.38308 3.6358 5.51904 -2.59424 38.9601 -0.0 0.0 -0.0 3.48126 15.9185 -5.53455 -7.21866 5.6312 -68.2791 1.30686 32.9167 -0.386092 42.5006 0.485675 5.28474 1.12067 -18.6608 -14.4517 0.0 0.0 0.0 3.87483 -31.1995 5.39165 -13.4325 0.31606 2.03246 23.266 11.786 -3.13895 -14.8715 0.0 0.0 -0.0 0.0 -0.0 -9.07441 10.163 2.4123 -42.6455 0.643591 -6.3646 19.18 -12.8072 2.64116 39.838 -0.0 -0.0 0.0 0.0 0.0 
3148.49 730.007 -614.081 128.683 -73.4446 129.904 -2.46987 0.350255 1.17035 -2.46915 0.275079 1.19026 -2.46238 -0.0337097 1.22116 -2.46443 0.159559 1.21116 -21.4096 3.7572 0.0541803 -21.4929 7.22316 1.7151 -0.0 0.0 -0.0 0.96396 0.150152 1.87261 -9.37352 -21.8824 70.5667 0.545063 -15.1102 0.0722928 -34.3355 -2.36987 3.62487 5.65119 -2.79774 40.0136 -0.0 0.0 -0.0 3.71348 16.1897 -6.00549 -8.11539 5.6233 -68.5431 1.18356 30.3821 -0.321379 41.8696 0.450063 5.21231 1.18562 -19.3052 -15.069 0.0 0.0 0.0 2.86636 -30.2562 4.92802 -14.7913 0.321308 2.24087 24.2604 12.0588 -3.25857 -14.7849 0.0 0.0 -0.0 0.0 -0.0 -8.47726 9.30769 1.76332 -42.6001 0.640415 -6.35838 17.4472 -15.8101 2.43589 39.7121 -0.0 -0.0 0.0 0.0 0.0 
3161.51 729.919 -616.084 133.356 -72.8062 134.393 -2.33504 0.130871 1.22994 -2.3342 0.0523476 1.23578 -2.33216 -0.258026 1.20968 -2.33419 -0.063757 1.23524 -21.0953 4.25103 0.703378 -21.1897 7.85742 2.51365 -0.0 0.0 -0.0 1.19488 -1.86753 2.1176 -7.99298 -22.251 69.5045 0.569201 -15.7468 0.0787143 -34.4528 -2.38146 3.63446 5.55693 -2.64968 39.262 -0.0 0.0 -0.0 3.67955 15.3664 -6.00446 -7.11879 5.32608 -68.5091 1.01153 26.6141 -0.239254 41.9961 0.457138 5.22686 0.856643 -21.7064 -13.8359 0.0 0.0 0.0 1.64515 -28.3358 4.69963 -13.5334 0.31662 2.04792 24.0734 13.0994 -3.24244 -13.9699 0.0 0.0 -0.0 0.0 -0.0 -7.86045 10.9957 2.07747 -42.5969 0.640189 -6.35794 15.8974 -15.0216 2.22906 40.1373 -0.0 -0.0 0.0 0.0 0.0 
3170.47 730.028 -621.895 134.022 -72.8028 135.451 -2.33411 0.0828481 1.20855 -2.33329 0.00578272 1.21137 -2.33234 -0.297029 1.17441 -2.33425 -0.107839 1.20658 -22.1594 3.78462 0.852648 -22.2369 6.90294 2.51619 -0.0 0.0 -0.0 1.15535 -2.62897 1.9639 -5.90261 -22.5483 68.4393 0.697657 -19.0651 0.117157 -33.8425 -2.32137 3.58427 5.66134 -3.63323 39.6795 -0.0 0.0 -0.0 3.92833 18.3852 -6.27111 -8.69808 4.89624 -68.3427 0.944915 25.0831 -0.210206 42.1943 0.46829 5.24963 1.08101 -21.1178 -15.01 0.0 0.0 0.0 1.56434 -28.6752 4.65857 -13.9242 0.31853 2.10786 25.6044 13.8313 -3.42761 -14.2498 0.0 0.0 -0.0 0.0 -0.0 -6.13033 10.8919 2.96634 -42.6562 0.644346 -6.36607 17.3387 -13.7365 2.41044 39.9895 -0.0 -0.0 0.0 0.0 0.0 
3176.76 731.087 -625.912 137.241 -71.7056 138.447 -2.19281 0.122782 1.12787 -2.19211 0.0507691 1.13339 -2.19036 -0.231223 1.11072 -2.19208 -0.0529157 1.13329 -21.6925 3.21016 0.658065 -21.7471 5.87988 2.04615 -0.0 0.0 -0.0 1.45367 -3.94865 2.4245 -4.84321 -23.8794 67.8259 0.730051 -19.8823 0.127956 -34.1623 -2.35279 3.61065 5.65543 -1.94413 40.4757 -0.0 0.0 -0.0 3.60343 17.4567 -5.6582 -8.30538 4.067 -68.7181 0.917359 24.4383 -0.198665 42.3322 0.476097 5.26546 1.29349 -18.5806 -15.5081 0.0 0.0 0.0 0.146473 -28.6055 4.75122 -12.0853 0.30598 1.82601 24.1484 13.0689 -3.25114 -15.8029 0.0 0.0 -0.0 0.0 -0.0 -0.950071 10.5034 4.75042 -42.4108 0.627224 -6.33244 16.3066 -15.498 2.28534 39.5999 -0.0 -0.0 0.0 0.0 0.0 
3190.98 731.532 -630.266 139.987 -71.4667 140.88 -2.22287 0.238092 0.979653 -2.22235 0.175275 0.992817 -2.21865 -0.0762801 1.00528 -2.22005 0.0834339 1.00471 -21.5365 3.29656 1.32206 -21.5834 5.7252 2.6908 -0.0 0.0 -0.0 1.33656 -4.31083 2.15572 -4.24164 -23.1945 67.2415 0.854754 -22.9486 0.173505 -33.6029 -2.29793 3.5644 5.90658 -1.6269 42.9034 -0.0 0.0 -0.0 3.53909 18.0454 -5.46698 -8.29545 3.37021 -68.8669 0.688408 18.8303 -0.114153 42.1956 0.468363 5.24978 1.26761 -19.0203 -15.4885 0.0 0.0 0.0 -0.243255 -25.8763 6.1251 -11.6697 0.30189 1.76237 26.0135 19.241 -3.53312 -15.1341 0.0 0.0 -0.0 0.0 -0.0 2.94826 9.60412 5.509 -43.5375 0.707018 -6.48626 15.0832 -18.073 2.13959 40.133 -0.0 -0.0 0.0 0.0 0.0 
3196.02 734.171 -632.672 141.366 -71.9226 141.8 -2.13695 0.283008 1.08725 -2.13632 0.213254 1.10305 -2.1314 -0.0650983 1.12159 -2.13313 0.112841 1.1178 -21.0684 2.44916 0.993324 -21.093 4.23906 1.98861 -0.0 0.0 -0.0 1.42051 -5.40247 2.21642 -3.20272 -24.8329 65.9554 0.913732 -24.3529 0.197167 -33.7681 -2.31408 3.57811 5.7693 -1.02946 41.9468 -0.0 0.0 -0.0 3.56113 18.706 -5.45357 -9.09356 2.8596 -69.4013 0.638513 17.5523 -0.0985758 42.1944 0.468297 5.24965 1.31816 -18.049 -15.4901 0.0 0.0 0.0 -0.623387 -24.7525 6.42808 -9.70157 0.27626 1.46148 24.8931 18.0587 -3.38471 -16.1887 0.0 0.0 -0.0 0.0 -0.0 5.47826 9.37264 5.57406 -42.4586 0.630548 -6.33899 13.4794 -18.1955 1.92423 39.7066 -0.0 -0.0 0.0 0.0 0.0 
3205.23 736.151 -635.929 144.513 -71.0503 144.704 -2.06847 0.443728 1.0129 -2.06798 0.378379 1.03907 -2.06032 0.112097 1.10012 -2.06189 0.284424 1.06862 -21.0357 2.35396 1.43189 -21.0521 3.83991 2.3522 -0.0 0.0 -0.0 1.25417 -5.68676 1.85321 -2.70322 -25.0119 65.5051 0.986853 -26.0515 0.228306 -33.6502 -2.30255 3.56833 5.80989 -0.864405 42.3974 -0.0 0.0 -0.0 3.51805 19.2188 -5.31335 -9.31853 2.44018 -69.4071 0.55114 15.2708 -0.0738849 42.1636 0.466559 5.24611 1.29874 -17.9505 -15.3352 0.0 0.0 0.0 -0.83825 -23.1878 6.66754 -9.51214 0.273248 1.43257 25.235 19.4053 -3.4427 -16.2541 0.0 0.0 -0.0 0.0 -0.0 6.96757 9.06562 5.94379 -42.6022 0.640566 -6.35868 12.6775 -18.8633 1.81899 39.6754 -0.0 -0.0 0.0 0.0 0.0 
3213.39 737.131 -635.095 147.2 -70.5893 147.349 -2.06556 0.596847 0.813477 -2.06535 0.543875 0.849805 -2.0567 0.319027 0.957172 -2.05768 0.466185 0.894783 -21.0818 3.21972 2.83187 -21.0938 4.82723 4.02925 -0.0 0.0 -0.0 0.93129 -3.75138 1.4055 -0.780826 -24.9331 64.478 1.20869 -30.91 0.33419 -33.7046 -2.30788 3.57285 5.90835 -0.582258 43.4443 -0.0 0.0 -0.0 3.61671 18.9721 -5.54833 -9.83522 2.08238 -69.3414 0.492971 13.7234 -0.0593223 42.0993 0.462933 5.23872 1.2813 -18.2502 -15.3236 0.0 0.0 0.0 -1.57504 -20.915 6.53329 -8.50419 0.255615 1.27891 24.1928 23.179 -3.37402 -16.1749 0.0 0.0 -0.0 0.0 -0.0 9.02453 8.17661 6.50281 -41.9926 0.598378 -6.27495 9.71756 -17.2485 1.40117 39.0243 -0.0 -0.0 0.0 0.0 0.0 
